<svg width="13" height="18" viewBox="0 0 13 18" fill="none" xmlns="http://www.w3.org/2000/svg"><path d="M7.583 4.604V0H.813A.81.81 0 000 .813V16.52c0 .45.362.812.813.812h11.374a.81.81 0 00.813-.812V5.417H8.396a.815.815 0 01-.813-.813zm2.167 7.99a.407.407 0 01-.406.406H3.656a.407.407 0 01-.406-.406v-.271c0-.223.183-.406.406-.406h5.688c.223 0 .406.183.406.406v.27zm0-2.167a.407.407 0 01-.406.406H3.656a.407.407 0 01-.406-.406v-.27c0-.224.183-.407.406-.407h5.688c.223 0 .406.183.406.406v.271zm0-2.437v.27a.407.407 0 01-.406.407H3.656a.407.407 0 01-.406-.407v-.27c0-.224.183-.407.406-.407h5.688c.223 0 .406.183.406.407zM13 4.127v.206H8.667V0h.206c.217 0 .423.085.576.237l3.314 3.318a.81.81 0 01.237.572z" fill="white"/></svg>