<svg width="15" height="9" viewBox="0 0 15 9" fill="none" xmlns="http://www.w3.org/2000/svg">
<path d="M15 0.974843C15 1.21743 14.9057 1.43306 14.717 1.62174L8.16712 8.17161C7.97844 8.36029 7.7628 8.45463 7.52022 8.45463C7.27763 8.45463 7.04852 8.36029 6.83288 8.17161L0.283019 1.62174C0.0943396 1.43306 0 1.20395 0 0.934411C0 0.66487 0.0943396 0.449236 0.283019 0.287511C0.471698 0.125786 0.687332 0.0314465 0.929919 0.00449236C1.17251 -0.0224618 1.38814 0.0718778 1.57682 0.287511L7.47978 6.19048L13.3827 0.287511C13.5714 0.098832 13.8005 0.00449236 14.0701 0.00449236C14.3396 0.00449236 14.5553 0.098832 14.717 0.287511C14.9057 0.530099 15 0.759209 15 0.974843Z" fill="#1833FF" fill-opacity="0.8"/>
</svg>
