<svg width="25" height="24" viewBox="0 0 25 24" fill="none" xmlns="http://www.w3.org/2000/svg">
<path d="M24.4826 11.6091L13.1237 0.258509C13.042 0.176562 12.9448 0.111549 12.8379 0.0671908C12.7309 0.0228326 12.6163 0 12.5005 0C12.3847 0 12.2701 0.0228326 12.1632 0.0671908C12.0562 0.111549 11.9591 0.176562 11.8773 0.258509L0.518442 11.6091C0.187522 11.94 0 12.3895 0 12.8583C0 13.8318 0.791451 14.6232 1.76491 14.6232H2.96174V22.7225C2.96174 23.2106 3.35608 23.6049 3.84419 23.6049H10.7356V17.4278H13.8242V23.6049H21.1568C21.645 23.6049 22.0393 23.2106 22.0393 22.7225V14.6232H23.2361C23.7049 14.6232 24.1544 14.4384 24.4853 14.1048C25.172 13.4154 25.172 12.2985 24.4826 11.6091Z" fill="#9B9CAA"/>
</svg>
