<svg width="14" height="18" viewBox="0 0 14 18" fill="none" xmlns="http://www.w3.org/2000/svg">
<path d="M1.75 17.5H12.25C12.7141 17.5 13.1592 17.3156 13.4874 16.9874C13.8156 16.6592 14 16.2141 14 15.75V5.25L8.75 0H1.75C1.28587 0 0.840752 0.184374 0.512563 0.512563C0.184374 0.840752 0 1.28587 0 1.75V15.75C0 16.2141 0.184374 16.6592 0.512563 16.9874C0.840752 17.3156 1.28587 17.5 1.75 17.5ZM7.875 1.75L12.25 6.125H7.875V1.75ZM3.9375 7.875C4.10992 7.87506 4.28064 7.90907 4.43991 7.97511C4.59918 8.04114 4.74388 8.1379 4.86576 8.25986C4.98764 8.38182 5.0843 8.52659 5.15023 8.6859C5.21615 8.84522 5.25006 9.01596 5.25 9.18838C5.24994 9.36079 5.21593 9.53151 5.14989 9.69078C5.08386 9.85005 4.9871 9.99476 4.86514 10.1166C4.74318 10.2385 4.59841 10.3352 4.4391 10.4011C4.27978 10.467 4.10904 10.5009 3.93662 10.5009C3.58841 10.5008 3.25451 10.3623 3.00837 10.116C2.76222 9.86971 2.62401 9.53571 2.62413 9.1875C2.62424 8.83929 2.76268 8.50538 3.00899 8.25924C3.25529 8.0131 3.58929 7.87488 3.9375 7.875ZM4.375 12.25L5.77238 13.4426L7.875 9.625L11.375 14.875H2.625L4.375 12.25Z" fill="#9B9CAA"/>
</svg>
