<svg width="25" height="22" viewBox="0 0 25 22" fill="none" xmlns="http://www.w3.org/2000/svg">
<path d="M19.1919 4.94529L25 10.5429L19.1919 16.0985V12.3737H10.5008V8.67003H19.1919V4.94529ZM15.6987 15.7197L17.9293 17.9714C15.7407 20.0196 13.3698 21.0438 10.8165 21.0438C7.77217 21.0438 5.20833 20.0372 3.125 18.024C1.04167 16.0108 0 13.4961 0 10.4798C0 8.58586 0.476992 6.83221 1.43098 5.21886C2.38496 3.6055 3.67214 2.33235 5.29251 1.39941C6.91288 0.46647 8.67003 0 10.564 0C13.1453 0 15.5934 1.03816 17.9083 3.11448L15.6987 5.34512C14.0993 3.88608 12.3948 3.15657 10.585 3.15657C8.49467 3.15657 6.7305 3.88608 5.29251 5.34512C3.85452 6.80415 3.13552 8.58586 3.13552 10.6902C3.13552 12.6543 3.87556 14.3448 5.35564 15.7618C6.83572 17.1787 8.57183 17.8872 10.564 17.8872C12.4018 17.8872 14.1134 17.1647 15.6987 15.7197Z" fill="#9B9CAA"/>
</svg>
