<svg width="25" height="23" viewBox="0 0 25 23" fill="none" xmlns="http://www.w3.org/2000/svg">
<path d="M22.5 0H2.5C1.12125 0 0 1.12125 0 2.5V7.5C0 8.87875 1.12125 10 2.5 10H22.5C23.8787 10 25 8.87875 25 7.5V2.5C25 1.12125 23.8787 0 22.5 0ZM2.5 7.5V2.5H22.5L22.5025 7.5H2.5ZM22.5 12.5H2.5C1.12125 12.5 0 13.6213 0 15V20C0 21.3787 1.12125 22.5 2.5 22.5H22.5C23.8787 22.5 25 21.3787 25 20V15C25 13.6213 23.8787 12.5 22.5 12.5ZM2.5 20V15H22.5L22.5025 20H2.5Z" fill="#9B9CAA"/>
<path d="M18.75 3.75H21.25V6.25H18.75V3.75ZM15 3.75H17.5V6.25H15V3.75ZM18.75 16.25H21.25V18.75H18.75V16.25ZM15 16.25H17.5V18.75H15V16.25Z" fill="#9B9CAA"/>
</svg>
