<svg width="25" height="26" viewBox="0 0 25 26" fill="none" xmlns="http://www.w3.org/2000/svg">
<path d="M22.0623 14.1105C22.1106 13.7087 22.1427 13.2909 22.1427 12.857C22.1427 12.423 22.1106 12.0052 22.0463 11.6034L24.7623 9.48203C24.8788 9.38441 24.9583 9.24979 24.9876 9.10063C25.0168 8.95147 24.994 8.79678 24.923 8.6624L22.3516 4.21069C22.1909 3.9214 21.8534 3.82498 21.5641 3.9214L18.366 5.2071C17.7019 4.69445 16.9722 4.27286 16.1964 3.95355L15.7142 0.546461C15.691 0.393172 15.6131 0.253449 15.495 0.153036C15.3769 0.0526239 15.2264 -0.00171152 15.0714 4.11129e-05H9.92861C9.77533 -0.0015144 9.62682 0.0532762 9.51127 0.154008C9.39573 0.25474 9.3212 0.394398 9.30184 0.546461L8.8197 3.95355C8.04519 4.27551 7.31586 4.6969 6.6501 5.2071L3.45194 3.9214C3.30792 3.86588 3.14863 3.86462 3.00375 3.91784C2.85887 3.97106 2.73828 4.07514 2.66445 4.21069L0.0930633 8.6624C0.0135387 8.79465 -0.0140512 8.95171 0.015642 9.10315C0.0453351 9.25458 0.130196 9.3896 0.253775 9.48203L2.9698 11.6034C2.90552 12.0052 2.8573 12.4391 2.8573 12.857C2.8573 13.2748 2.88945 13.7087 2.95373 14.1105L0.237704 16.2319C0.121182 16.3295 0.0416616 16.4641 0.0124138 16.6133C-0.016834 16.7625 0.00596012 16.9172 0.076992 17.0515L2.64838 21.5033C2.80909 21.7925 3.14658 21.889 3.43586 21.7925L6.63403 20.5068C7.29815 21.0195 8.02781 21.4411 8.80363 21.7604L9.28577 25.1675C9.35005 25.4889 9.60719 25.7139 9.92861 25.7139H15.0714C15.3928 25.7139 15.666 25.4889 15.6982 25.1675L16.1803 21.7604C16.9548 21.4384 17.6841 21.017 18.3499 20.5068L21.5481 21.7925C21.8373 21.905 22.1748 21.7925 22.3356 21.5033L24.9069 17.0515C24.9865 16.9193 25.0141 16.7622 24.9844 16.6108C24.9547 16.4594 24.8698 16.3243 24.7462 16.2319L22.0623 14.1105ZM12.5 17.6783C9.84826 17.6783 7.67865 15.5087 7.67865 12.857C7.67865 10.2052 9.84826 8.03562 12.5 8.03562C15.1517 8.03562 17.3213 10.2052 17.3213 12.857C17.3213 15.5087 15.1517 17.6783 12.5 17.6783Z" fill="#9B9CAA"/>
</svg>
