<svg width="25" height="17" viewBox="0 0 25 17" fill="none" xmlns="http://www.w3.org/2000/svg">
<path d="M25 11.0417C25 11.6667 23.75 12.0833 22.2917 12.2917C21.3542 10.5208 19.4792 9.16667 17.2917 8.22917C17.5 7.91667 17.7083 7.70833 17.9167 7.39583H18.75C21.9792 7.29167 25 9.27083 25 11.0417ZM7.08333 7.29167H6.25C3.02083 7.29167 0 9.27083 0 11.0417C0 11.6667 1.25 12.0833 2.70833 12.2917C3.64583 10.5208 5.52083 9.16667 7.70833 8.22917L7.08333 7.29167ZM12.5 8.33333C14.7917 8.33333 16.6667 6.45833 16.6667 4.16667C16.6667 1.875 14.7917 0 12.5 0C10.2083 0 8.33333 1.875 8.33333 4.16667C8.33333 6.45833 10.2083 8.33333 12.5 8.33333ZM12.5 9.375C8.22917 9.375 4.16667 12.0833 4.16667 14.5833C4.16667 16.6667 12.5 16.6667 12.5 16.6667C12.5 16.6667 20.8333 16.6667 20.8333 14.5833C20.8333 12.0833 16.7708 9.375 12.5 9.375ZM18.4375 6.25H18.75C20.5208 6.25 21.875 4.89583 21.875 3.125C21.875 1.35417 20.5208 0 18.75 0C18.2292 0 17.8125 0.104167 17.3958 0.3125C18.2292 1.35417 18.75 2.70833 18.75 4.16667C18.75 4.89583 18.6458 5.625 18.4375 6.25ZM6.25 6.25H6.5625C6.35417 5.625 6.25 4.89583 6.25 4.16667C6.25 2.70833 6.77083 1.35417 7.60417 0.3125C7.1875 0.104167 6.77083 0 6.25 0C4.47917 0 3.125 1.35417 3.125 3.125C3.125 4.89583 4.47917 6.25 6.25 6.25Z" fill="#9B9CAA"/>
</svg>
